<svg width="87" height="31" viewBox="0 0 87 31" xmlns="http://www.w3.org/2000/svg"><g id="beat" stroke="none" stroke-width="1" fill="none" fill-rule="evenodd"><path d="M58.282 18.07l-1.946-9.732a.235.235 0 00-.238-.193.234.234 0 00-.236.193L53.92 18.07c-.06.3.168.578.473.578h3.416c.306 0 .534-.28.474-.578zm8.071 12.11h-4.727a.967.967 0 01-.927-.693l-1.267-4.276a.653.653 0 00-.626-.466h-5.533a.652.652 0 00-.629.48l-1.158 4.242a.967.967 0 01-.933.712h-4.71a.967.967 0 01-.933-1.218L51.93 2.89A2.793 2.793 0 0154.626.822h2.988c1.264 0 2.371.849 2.698 2.07l6.975 26.07a.967.967 0 01-.934 1.217zm-25.838-6.473h-9.462a.483.483 0 01-.484-.484V19.22c0-.267.217-.484.484-.484h8.971a.966.966 0 00.967-.965v-4.54a.967.967 0 00-.967-.967h-8.971a.483.483 0 01-.484-.484V7.777c0-.267.217-.484.484-.484h9.297a.965.965 0 00.967-.965v-4.54A.966.966 0 0040.35.82H27.333l-.65.048c-1.422.106-2.587 1.36-2.587 2.786v23.73a2.794 2.794 0 002.794 2.794h13.625a.967.967 0 00.966-.966v-4.54a.967.967 0 00-.966-.966zm-26.1-2.67c0-1.636-1.174-3.23-2.936-3.23H7.291c-.252 0-.42.168-.42.42v5.661c0 .252.168.42.42.42h4.188c1.804 0 2.936-1.594 2.936-3.271zM6.871 11.85c0 .252.168.42.42.42h4.026c1.468 0 2.768-1.343 2.768-2.81 0-1.468-1.3-2.769-2.768-2.769H7.291c-.252 0-.42.168-.42.42v4.74zm13.463 9.186c0 5.578-3.439 9.142-9.017 9.142H3.794A2.793 2.793 0 011 27.386V3.616A2.793 2.793 0 013.794.821h7.523c5.117 0 8.682 3.815 8.682 8.387 0 2.013-.63 3.942-2.139 5.453-.252.25-.252.587 0 .754 1.719 1.342 2.474 3.566 2.474 5.62zM86.032.82c.535 0 .968.433.968.966v4.54a.967.967 0 01-.968.966H80.74a.483.483 0 00-.484.484v21.436a.967.967 0 01-.966.966h-4.54a.967.967 0 01-.966-.966V7.777a.483.483 0 00-.484-.484h-5.293a.967.967 0 01-.967-.966v-4.54c0-.533.433-.966.967-.966h18.025z" id="Fill-1" fill="#23D2AA"/></g></svg>